<svg width="20" height="21" viewBox="0 0 20 21" fill="none" xmlns="http://www.w3.org/2000/svg">
<path fill-rule="evenodd" clip-rule="evenodd" d="M1.28162 11.747L15.6266 11.747L9.35362 18.023C9.10826 18.2566 8.96939 18.5807 8.96939 18.9195C8.96939 19.2583 9.10826 19.5823 9.35362 19.816C9.58728 20.0613 9.9113 20.2002 10.2501 20.2002C10.5889 20.2002 10.913 20.0613 11.1466 19.816L19.4696 11.491C19.9828 10.9044 19.9828 10.0286 19.4696 9.44197L11.1446 1.11697C10.911 0.871613 10.5869 0.732746 10.2481 0.732746C9.9093 0.732746 9.58528 0.871613 9.35162 1.11697H9.35162C9.10626 1.35064 8.96739 1.67465 8.96739 2.01347C8.96739 2.35229 9.10626 2.67631 9.35162 2.90997L15.6266 9.18497L1.28162 9.18497C0.935875 9.16401 0.597725 9.29223 0.352802 9.53715C0.107876 9.78208 -0.0203438 10.1202 0.000617981 10.466C-0.0203438 10.8117 0.107876 11.1499 0.352798 11.3948C0.597725 11.6397 0.935871 11.7679 1.28162 11.747Z" fill="#377DFF"/>
</svg>
